<svg width="33" height="32" viewBox="0 0 33 32" fill="none" xmlns="http://www.w3.org/2000/svg">
<path d="M28.3335 5.5H4.3335C3.67045 5.5 3.03457 5.76339 2.56573 6.23223C2.09689 6.70107 1.8335 7.33696 1.8335 8V24C1.8335 24.663 2.09689 25.2989 2.56573 25.7678C3.03457 26.2366 3.67045 26.5 4.3335 26.5H28.3335C28.9965 26.5 29.6324 26.2366 30.1013 25.7678C30.5701 25.2989 30.8335 24.663 30.8335 24V8C30.8335 7.33696 30.5701 6.70107 30.1013 6.23223C29.6324 5.76339 28.9965 5.5 28.3335 5.5ZM27.8335 8.5V11H4.8335V8.5H27.8335ZM4.8335 23.5V14H27.8335V23.5H4.8335ZM26.3335 20.5C26.3335 20.8978 26.1755 21.2794 25.8942 21.5607C25.6129 21.842 25.2313 22 24.8335 22H20.8335C20.4357 22 20.0541 21.842 19.7728 21.5607C19.4915 21.2794 19.3335 20.8978 19.3335 20.5C19.3335 20.1022 19.4915 19.7206 19.7728 19.4393C20.0541 19.158 20.4357 19 20.8335 19H24.8335C25.2313 19 25.6129 19.158 25.8942 19.4393C26.1755 19.7206 26.3335 20.1022 26.3335 20.5ZM17.8335 20.5C17.8335 20.8978 17.6755 21.2794 17.3942 21.5607C17.1129 21.842 16.7313 22 16.3335 22H14.8335C14.4357 22 14.0541 21.842 13.7728 21.5607C13.4915 21.2794 13.3335 20.8978 13.3335 20.5C13.3335 20.1022 13.4915 19.7206 13.7728 19.4393C14.0541 19.158 14.4357 19 14.8335 19H16.3335C16.7313 19 17.1129 19.158 17.3942 19.4393C17.6755 19.7206 17.8335 20.1022 17.8335 20.5Z" fill="#000214"/>
</svg>
