<svg width="33" height="32" viewBox="0 0 33 32" fill="none" xmlns="http://www.w3.org/2000/svg">
<g clip-path="url(#clip0_2563_6980)">
<path d="M21.2138 22.6375C22.1365 21.734 22.7692 20.5761 23.0312 19.3116C23.2931 18.047 23.1724 16.7331 22.6845 15.5374C22.1966 14.3417 21.3636 13.3184 20.2917 12.5981C19.2198 11.8778 17.9577 11.4931 16.6663 11.4931C15.3749 11.4931 14.1127 11.8778 13.0409 12.5981C11.969 13.3184 11.136 14.3417 10.648 15.5374C10.1601 16.7331 10.0395 18.047 10.3014 19.3116C10.5634 20.5761 11.196 21.734 12.1188 22.6375C10.5565 23.468 9.25755 24.7188 8.36879 26.2488C8.17845 26.5927 8.13073 26.9976 8.23589 27.3764C8.34105 27.7551 8.59069 28.0775 8.93109 28.274C9.2715 28.4706 9.67546 28.5257 10.0561 28.4275C10.4367 28.3292 10.7635 28.0855 10.9663 27.7488C11.5524 26.7584 12.3864 25.9379 13.3861 25.3679C14.3858 24.7979 15.5168 24.4981 16.6675 24.4981C17.8183 24.4981 18.9493 24.7979 19.949 25.3679C20.9487 25.9379 21.7826 26.7584 22.3688 27.7488C22.4653 27.9231 22.5956 28.0765 22.752 28.2C22.9084 28.3234 23.0879 28.4145 23.2799 28.4678C23.472 28.5211 23.6727 28.5356 23.8704 28.5105C24.0681 28.4853 24.2588 28.4211 24.4313 28.3214C24.6039 28.2218 24.7549 28.0887 24.8755 27.93C24.9961 27.7714 25.0838 27.5903 25.1336 27.3973C25.1834 27.2043 25.1943 27.0034 25.1655 26.8062C25.1368 26.609 25.0691 26.4195 24.9663 26.2488C24.0768 24.7185 22.777 23.4676 21.2138 22.6375ZM13.1663 18C13.1663 17.3078 13.3716 16.6311 13.7561 16.0555C14.1407 15.4799 14.6874 15.0313 15.3269 14.7664C15.9664 14.5015 16.6702 14.4322 17.3491 14.5673C18.028 14.7023 18.6517 15.0356 19.1412 15.5251C19.6306 16.0146 19.964 16.6383 20.099 17.3172C20.2341 17.9961 20.1648 18.6999 19.8999 19.3394C19.635 19.9789 19.1864 20.5256 18.6108 20.9101C18.0352 21.2947 17.3585 21.5 16.6663 21.5C15.738 21.5 14.8478 21.1313 14.1914 20.4749C13.535 19.8185 13.1663 18.9283 13.1663 18ZM31.5675 19.1988C31.41 19.3172 31.2306 19.4034 31.0397 19.4525C30.8488 19.5016 30.6501 19.5126 30.455 19.4849C30.2598 19.4571 30.0721 19.3912 29.9024 19.2908C29.7328 19.1905 29.5846 19.0577 29.4663 18.9C28.425 17.5138 26.985 16.4513 25.8 16.195C25.4849 16.1269 25.2002 15.959 24.988 15.7163C24.7758 15.4737 24.6474 15.1691 24.6218 14.8477C24.5963 14.5263 24.675 14.2053 24.8462 13.9321C25.0175 13.659 25.2722 13.4483 25.5725 13.3313C25.9465 13.1853 26.2798 12.9514 26.5443 12.6493C26.8088 12.3473 26.9966 11.986 27.092 11.596C27.1873 11.206 27.1873 10.7988 27.092 10.4088C26.9966 10.0188 26.8088 9.65752 26.5443 9.35548C26.2798 9.05344 25.9465 8.81953 25.5725 8.67354C25.1985 8.52756 24.7949 8.47378 24.3957 8.51677C23.9966 8.55977 23.6136 8.69825 23.2793 8.92053C22.945 9.1428 22.6691 9.44232 22.475 9.79376C22.383 9.97185 22.2562 10.1297 22.1021 10.2579C21.948 10.3862 21.7698 10.4822 21.578 10.5404C21.3861 10.5986 21.1846 10.6178 20.9852 10.5968C20.7858 10.5758 20.5927 10.515 20.4172 10.418C20.2417 10.3211 20.0875 10.19 19.9635 10.0324C19.8396 9.87486 19.7485 9.69404 19.6956 9.50067C19.6427 9.3073 19.6292 9.10529 19.6557 8.90658C19.6822 8.70787 19.7483 8.51649 19.85 8.34376C20.2212 7.68744 20.7234 7.11445 21.3253 6.66039C21.9273 6.20632 22.6161 5.88087 23.3492 5.70425C24.0822 5.52764 24.8437 5.50363 25.5864 5.63372C26.3291 5.76381 27.0371 6.04521 27.6665 6.46046C28.2958 6.87571 28.8331 7.41593 29.2448 8.04756C29.6566 8.67919 29.9341 9.38874 30.0601 10.1321C30.1861 10.8755 30.1579 11.6369 29.9773 12.3689C29.7966 13.101 29.4674 13.7881 29.01 14.3875C30.1107 15.1207 31.0768 16.0378 31.8663 17.0988C32.1051 17.4169 32.2078 17.8168 32.1518 18.2106C32.0958 18.6044 31.8856 18.9599 31.5675 19.1988ZM7.53254 16.1988C6.34754 16.455 4.90754 17.5175 3.86629 18.905C3.62676 19.2231 3.27069 19.433 2.87639 19.4886C2.4821 19.5441 2.08188 19.4408 1.76379 19.2013C1.44569 18.9617 1.23578 18.6057 1.18022 18.2114C1.12466 17.8171 1.22801 17.4168 1.46754 17.0988C2.25733 16.0381 3.22347 15.121 4.32379 14.3875C3.86641 13.7881 3.53718 13.101 3.35653 12.3689C3.17589 11.6369 3.14769 10.8755 3.27369 10.1321C3.39969 9.38874 3.6772 8.67919 4.08898 8.04756C4.50076 7.41593 5.03801 6.87571 5.66736 6.46046C6.29672 6.04521 7.00473 5.76381 7.74743 5.63372C8.49012 5.50363 9.25163 5.52764 9.98466 5.70425C10.7177 5.88087 11.4066 6.20632 12.0085 6.66039C12.6105 7.11445 13.1126 7.68744 13.4838 8.34376C13.5855 8.51649 13.6516 8.70787 13.6781 8.90658C13.7047 9.10529 13.6911 9.3073 13.6382 9.50067C13.5853 9.69404 13.4942 9.87486 13.3703 10.0324C13.2464 10.19 13.0921 10.3211 12.9166 10.418C12.7411 10.515 12.548 10.5758 12.3486 10.5968C12.1493 10.6178 11.9477 10.5986 11.7559 10.5404C11.564 10.4822 11.3858 10.3862 11.2317 10.2579C11.0776 10.1297 10.9508 9.97185 10.8588 9.79376C10.6647 9.44232 10.3888 9.1428 10.0545 8.92053C9.72017 8.69825 9.33724 8.55977 8.93808 8.51677C8.53892 8.47378 8.13527 8.52756 7.76129 8.67354C7.3873 8.81953 7.05398 9.05344 6.7895 9.35548C6.52503 9.65752 6.33718 10.0188 6.24186 10.4088C6.14654 10.7988 6.14653 11.206 6.24186 11.596C6.33718 11.986 6.52503 12.3473 6.7895 12.6493C7.05397 12.9514 7.3873 13.1853 7.76129 13.3313C8.06167 13.4483 8.31635 13.659 8.48759 13.9321C8.65883 14.2053 8.73751 14.5263 8.71199 14.8477C8.68646 15.1691 8.55807 15.4737 8.34585 15.7163C8.13364 15.959 7.84888 16.1269 7.53379 16.195L7.53254 16.1988Z" fill="#000214"/>
</g>
<defs>
<clipPath id="clip0_2563_6980">
<rect width="32" height="32" fill="white" transform="translate(0.666504)"/>
</clipPath>
</defs>
</svg>
